<svg xmlns="http://www.w3.org/2000/svg" width="22.594" height="20.305" viewBox="0 0 22.594 20.305">
  <g id="corazon" transform="translate(0 0.001)">
    <path id="Favoritos" d="M298.006,412.988a7.208,7.208,0,0,0-1.388-1.446l-.04.046.04-.046a5.67,5.67,0,0,0-3.57-1.244,6.081,6.081,0,0,0-4.544,2h0a7.192,7.192,0,0,0-1.8,4.882,8.547,8.547,0,0,0,2.243,5.564l.049-.036-.049.036a47.787,47.787,0,0,0,5.586,5.293h0c.772.664,1.647,1.417,2.555,2.218a1.377,1.377,0,0,0,1.823,0c.91-.8,1.786-1.557,2.56-2.223l-.039-.041.039.041h0a47.816,47.816,0,0,0,5.583-5.291,8.551,8.551,0,0,0,2.242-5.564,7.192,7.192,0,0,0-1.8-4.882,6.08,6.08,0,0,0-4.543-2,5.671,5.671,0,0,0-3.571,1.244A7.272,7.272,0,0,0,298.006,412.988Zm-7.346,8.726-.046.033.046-.033a6.548,6.548,0,0,1-1.768-4.291,5.311,5.311,0,0,1,1.311-3.6,4.309,4.309,0,0,1,3.221-1.412,3.956,3.956,0,0,1,2.482.868,5.875,5.875,0,0,1,1.386,1.625h0a.823.823,0,0,0,1.42,0,5.893,5.893,0,0,1,1.387-1.625,3.955,3.955,0,0,1,2.491-.868,4.3,4.3,0,0,1,3.216,1.409,5.307,5.307,0,0,1,1.311,3.6,6.549,6.549,0,0,1-1.764,4.294,43.464,43.464,0,0,1-5,4.726h0c-.707.608-1.507,1.293-2.343,2.033-.832-.734-1.63-1.421-2.335-2.027h0A43.321,43.321,0,0,1,290.66,421.714Z" transform="translate(-286.703 -410.296)" fill="#c7bdb8"/>
  </g>
</svg>